Coordinates
version=1
nRows=10
nColumns=63
inDegrees=yes

Units are S.I. units (second, meters, Newtons, ...)
If the header above contains a line with 'inDegrees', this indicates whether rotational values are in degrees (yes) or radians (no).

endheader
time	pelvis_tilt	pelvis_list	pelvis_rotation	pelvis_tx	pelvis_ty	pelvis_tz	hip_flexion_r	hip_adduction_r	hip_rotation_r	knee_angle_r	knee_angle_r_beta	ankle_angle_r	subtalar_angle_r	mtp_angle_r	hip_flexion_l	hip_adduction_l	hip_rotation_l	knee_angle_l	knee_angle_l_beta	ankle_angle_l	subtalar_angle_l	mtp_angle_l	L5_S1_Flex_Ext	L5_S1_Lat_Bending	L5_S1_axial_rotation	L4_L5_Flex_Ext	L4_L5_Lat_Bending	L4_L5_axial_rotation	L3_L4_Flex_Ext	L3_L4_Lat_Bending	L3_L4_axial_rotation	L2_L3_Flex_Ext	L2_L3_Lat_Bending	L2_L3_axial_rotation	L1_L2_Flex_Ext	L1_L2_Lat_Bending	L1_L2_axial_rotation	L1_T12_Flex_Ext	L1_T12_Lat_Bending	L1_T12_axial_rotation	Abs_r3	Abs_r2	Abs_r1	Abs_t1	Abs_t2	neck_flexion	neck_bending	neck_rotation	arm_flex_r	arm_add_r	arm_rot_r	elbow_flex_r	pro_sup_r	wrist_flex_r	wrist_dev_r	arm_flex_l	arm_add_l	arm_rot_l	elbow_flex_l	pro_sup_l	wrist_flex_l	wrist_dev_l
      5.70000000	    -12.80112419	     -3.30399889	     -2.21963865	     -0.27154276	      1.06792003	      0.25956798	     65.62384684	     -7.30676117	     -1.58486952	    108.12239671	      1.88709182	     10.60907309	     -4.56427650	      0.00000000	     62.11976164	     -9.05117534	     -3.47380760	     59.08288920	      1.03119095	     10.77358231	      6.80085024	      0.00000000	     -0.03663280	      0.34921277	      0.90511618	     -0.06803078	      0.46445299	      0.96168594	     -0.06018403	      0.84907593	      0.96168594	     -0.04186763	      0.84907593	      0.79197666	     -0.03401722	      0.71211469	      0.73540690	     -0.02093198	      0.54093058	      0.67883713	     -0.26166445	      3.95036472	      5.03398466	      0.00000000	      0.00000000	      0.00000000	      0.00000000	      0.00000000	      3.04066028	    -19.36335038	     14.23281584	     66.29240542	     31.23354140	      0.00000000	      4.99999865	      3.72706830	    -19.11103780	     22.04253202	     82.56702351	     45.10002598	      0.00000000	      4.99999865
      5.70800000	    -13.18872233	     -3.27152170	     -2.51024093	     -0.27146894	      1.06784685	      0.25963898	     67.11445264	     -7.22943862	     -1.14550980	    109.47925125	      1.91077340	     11.43094758	     -3.53444928	      0.00000000	     61.16873126	     -8.96333542	     -3.33726180	     57.21477399	      0.99858619	      9.61239719	      5.79479833	      0.00000000	     -0.03750616	      0.35704627	      0.99942543	     -0.06965268	      0.47487155	      1.06188952	     -0.06161886	      0.86812231	      1.06188952	     -0.04286579	      0.86812231	      0.87449725	     -0.03482822	      0.72808876	      0.81203316	     -0.02143102	      0.55306468	      0.74956907	     -0.26790272	      4.03897887	      5.55850439	      0.00000000	      0.00000000	      0.00000000	      0.00000000	      0.00000000	      3.64729641	    -19.56258019	     13.34432138	     66.96725000	     31.26417865	      0.00000000	      4.99999871	      5.76593770	    -18.99782414	     23.08850102	     81.34222085	     45.25526646	      0.00000000	      4.99999871
      5.71700000	    -13.61315717	     -3.32808089	     -2.96607125	     -0.27134181	      1.06765042	      0.25994442	     68.63390155	     -6.92615016	     -0.78934544	    110.73121232	      1.93262424	     12.15835521	     -2.78065804	      0.00000000	     60.26295273	     -9.08827334	     -3.13891997	     55.42784804	      0.96739845	      8.83231469	      5.04732794	      0.00000000	     -0.03886252	      0.37645297	      1.09608631	     -0.07217158	      0.50068245	      1.16459170	     -0.06384723	      0.91530775	      1.16459170	     -0.04441597	      0.91530775	      0.95907552	     -0.03608774	      0.76766289	      0.89057012	     -0.02220604	      0.58312565	      0.82206473	     -0.27759109	      4.25851126	      6.09610321	      0.00000000	      0.00000000	      0.00000000	      0.00000000	      0.00000000	      4.36918173	    -19.79873101	     12.68615565	     67.59249129	     31.34388506	      0.00000000	      4.99999877	      7.53510705	    -18.76171140	     23.58295278	     80.41037087	     45.37962373	      0.00000000	      4.99999877
      5.72500000	    -14.04885158	     -3.45414305	     -3.44556797	     -0.27111378	      1.06737180	      0.26011611	     70.13874514	     -6.63394898	     -0.70930814	    111.89623052	      1.95295764	     12.52519569	     -2.74355724	      0.00000000	     59.41635294	     -9.28928021	     -2.75092676	     53.78208846	      0.93867452	      8.43999076	      4.90333273	      0.00000000	     -0.03779066	      0.41111699	      1.15754158	     -0.07018103	      0.54678559	      1.22988792	     -0.06208628	      0.99958985	      1.22988792	     -0.04319095	      0.99958985	      1.01284888	     -0.03509241	      0.83834976	      0.94050253	     -0.02159358	      0.63682022	      0.86815618	     -0.26993491	      4.65063760	      6.43789898	      0.00000000	      0.00000000	      0.00000000	      0.00000000	      0.00000000	      5.39534029	    -20.14235229	     12.49111793	     68.07987247	     31.36732476	      0.00000000	      4.99999878	      8.96767604	    -18.35825462	     23.52226223	     79.54817023	     45.38670807	      0.00000000	      4.99999878
      5.73300000	    -14.41905827	     -3.54390094	     -4.02808527	     -0.27085478	      1.06709518	      0.26039932	     71.62879928	     -6.27792010	     -0.53265323	    113.03473929	      1.97282837	     12.83372682	     -2.52491708	      0.00000000	     58.47189005	     -9.54945790	     -2.40824624	     52.16597881	      0.91046809	      8.21575288	      4.42981603	      0.00000000	     -0.03888472	      0.43959075	      1.24948218	     -0.07221281	      0.58465570	      1.32757482	     -0.06388371	      1.06882096	      1.32757482	     -0.04444135	      1.06882096	      1.09329691	     -0.03610835	      0.89641347	      1.01520427	     -0.02221873	      0.68092608	      0.93711164	     -0.27774966	      4.97273853	      6.94924504	      0.00000000	      0.00000000	      0.00000000	      0.00000000	      0.00000000	      6.41097090	    -20.49696408	     12.27899049	     68.41643839	     31.39274413	      0.00000000	      4.99999879	     10.68683041	    -18.02271799	     23.80345774	     78.35826564	     45.41713257	      0.00000000	      4.99999879
      5.74200000	    -14.70848770	     -3.46290273	     -4.82114493	     -0.27050727	      1.06676349	      0.26097629	     73.13756718	     -5.78968489	     -0.05196661	    114.22875055	      1.99366780	     13.34279279	     -1.52727806	      0.00000000	     57.47427516	     -9.88171936	     -2.49328089	     50.81532752	      0.88689478	      7.92320817	      2.93798967	      0.00000000	     -0.04016109	      0.44548028	      1.39907565	     -0.07458317	      0.59248877	      1.48651788	     -0.06598066	      1.08314075	      1.48651788	     -0.04590011	      1.08314075	      1.22419119	     -0.03729359	      0.90842339	      1.13674896	     -0.02294805	      0.69004895	      1.04930674	     -0.28686668	      5.03936203	      7.78123903	      0.00000000	      0.00000000	      0.00000000	      0.00000000	      0.00000000	      7.42163171	    -20.71092916	     11.91473994	     68.52607377	     31.48410370	      0.00000000	      4.99999884	     12.79511096	    -17.93144352	     24.89280323	     76.90100613	     45.52965685	      0.00000000	      4.99999884
      5.75000000	    -15.10960155	     -3.56795851	     -5.33955545	     -0.27041855	      1.06635025	      0.26103481	     74.67105229	     -5.48857626	      0.01349858	    115.21191201	      2.01082720	     13.60366390	     -1.34687504	      0.00000000	     56.67358182	    -10.14785782	     -2.23022324	     49.44482452	      0.86297499	      7.84392947	      2.59754937	      0.00000000	     -0.03330399	      0.48021053	      1.43458572	     -0.06184884	      0.63868001	      1.52424733	     -0.05471512	      1.16758388	      1.52424733	     -0.03806313	      1.16758388	      1.25526251	     -0.03092608	      0.97924531	      1.16560090	     -0.01902990	      0.74384611	      1.07593929	     -0.23788705	      5.43223756	      7.97873541	      0.00000000	      0.00000000	      0.00000000	      0.00000000	      0.00000000	      8.86795325	    -20.95505583	     11.97223954	     68.39785676	     31.51635505	      0.00000000	      4.99999885	     14.35222218	    -17.57748320	     24.79312641	     75.67357661	     45.52318995	      0.00000000	      4.99999885
      5.75800000	    -15.34510193	     -3.64369093	     -5.96529305	     -0.27033549	      1.06621373	      0.26111316	     76.06147682	     -5.10398316	      0.15912399	    116.11263808	      2.02654784	     13.80362164	     -0.89504907	      0.00000000	     55.64323069	    -10.45441865	     -2.09214349	     48.06947095	      0.83897054	      7.87864386	      1.86143790	      0.00000000	     -0.03887960	      0.51072611	      1.49220216	     -0.07220330	      0.67926572	      1.58546479	     -0.06387529	      1.24177946	      1.58546479	     -0.04443549	      1.24177946	      1.30567689	     -0.03610360	      1.04147268	      1.21241425	     -0.02221580	      0.79111474	      1.11915162	     -0.27771309	      5.77743588	      8.29918074	      0.00000000	      0.00000000	      0.00000000	      0.00000000	      0.00000000	     10.61871068	    -21.26411454	     12.50828952	     67.73546414	     31.58371635	      0.00000000	      4.99999887	     16.24660483	    -17.18218042	     25.11145621	     73.82098554	     45.54143580	      0.00000000	      4.99999887
      5.76700000	    -15.60465177	     -3.75277053	     -6.51523327	     -0.27036332	      1.06599126	      0.26112335	     77.45311986	     -4.75699782	      0.25593221	    116.94800222	      2.04112769	     14.07434134	     -0.40949832	      0.00000000	     54.74916581	    -10.78388028	     -2.07985623	     46.88037892	      0.81821697	      7.81437078	      1.12709979	      0.00000000	     -0.03688307	      0.54522406	      1.51972896	     -0.06849554	      0.72514800	      1.61471202	     -0.06059519	      1.32565778	      1.61471202	     -0.04215366	      1.32565778	      1.32976284	     -0.03424962	      1.11182091	      1.23477978	     -0.02107498	      0.84455207	      1.13979672	     -0.26345206	      6.16768363	      8.45227658	      0.00000000	      0.00000000	      0.00000000	      0.00000000	      0.00000000	     12.60873334	    -21.47303874	     13.26616217	     66.85256151	     31.66087949	      0.00000000	      4.99999889	     18.14254962	    -16.84190141	     25.44878347	     71.92132344	     45.55545953	      0.00000000	      4.99999889
      5.77500000	    -15.88598804	     -3.87905002	     -6.99308563	     -0.27054495	      1.06574989	      0.26098173	     78.87939542	     -4.44272083	      0.28135894	    117.67972016	      2.05389858	     14.39540416	      0.02621682	      0.00000000	     53.93808516	    -11.09399045	     -2.11028035	     45.78262844	      0.79905761	      7.66697257	      0.49517985	      0.00000000	     -0.03376919	      0.58239474	      1.51498410	     -0.06271276	      0.77458501	      1.60967061	     -0.05547940	      1.41603457	      1.60967061	     -0.03859481	      1.41603457	      1.32561109	     -0.03135807	      1.18761936	      1.23092458	     -0.01929572	      0.90212945	      1.13623807	     -0.24120995	      6.58816579	      8.42588706	      0.00000000	      0.00000000	      0.00000000	      0.00000000	      0.00000000	     14.78386861	    -21.59291096	     14.20793617	     65.77918077	     31.74314303	      0.00000000	      4.99999890	     20.00648132	    -16.48437154	     25.73839454	     69.85514588	     45.55985027	      0.00000000	      4.99999890
